<?xml version="1.0" encoding="UTF-8"?>
<svg id="Layer_1" data-name="Layer 1" xmlns="http://www.w3.org/2000/svg" xmlns:xlink="http://www.w3.org/1999/xlink" viewBox="0 0 1024 1024">
  <defs>
    <style>
      .cls-1 {
        fill: url(#linear-gradient);
      }

      .cls-2 {
        fill: #fff;
      }
    </style>
    <linearGradient id="linear-gradient" x1="205.42" y1="205.42" x2="846.69" y2="846.69" gradientUnits="userSpaceOnUse">
      <stop offset="0" stop-color="#6dd791"/>
      <stop offset="1" stop-color="#366946"/>
    </linearGradient>
  </defs>
  <rect class="cls-1" x="0" y="0" width="1024" height="1024" rx="512" ry="512"/>
  <g>
    <path class="cls-2" d="M737.91,324.02c-12.21,3-24.19,6.98-35.87,11.92-28.55,12.08-54.2,29.37-76.24,51.41-21.36,21.36-38.27,46.12-50.29,73.63,12.32,14.08,19.79,32.49,19.79,52.62,0,29.45-15.99,55.22-39.74,69.11v222.6c142.22-21.05,251.36-143.64,251.36-291.72,0-72.19-25.94-138.32-69-189.58Z"/>
    <path class="cls-2" d="M512,393.76c14.27-24.76,31.73-47.53,52.2-68,28.12-28.12,60.58-50.58,96.58-66.84-43.68-25.57-94.51-40.23-148.78-40.23s-105.1,14.66-148.78,40.23c36,16.27,68.46,38.73,96.58,66.84,20.47,20.47,37.93,43.24,52.2,68Z"/>
    <path class="cls-2" d="M435.29,513.6c0-17.66,5.75-33.99,15.48-47.24-.38-.92-.76-1.84-1.15-2.76-12.08-28.55-29.37-54.2-51.41-76.24-22.04-22.04-47.69-39.34-76.24-51.41-11.68-4.94-23.66-8.92-35.87-11.92-43.06,51.26-69,117.39-69,189.58,0,148.08,109.14,270.66,251.36,291.72v-226.9c-20.07-14.55-33.16-38.18-33.16-64.81Z"/>
    <circle class="cls-2" cx="515.24" cy="514.23" r="29.86" transform="translate(-104.36 132.13) rotate(-13.28)"/>
  </g>
</svg>